<mxfile host="app.diagrams.net" modified="2023-08-17T03:52:52.610Z" agent="Mozilla/5.0 (Windows NT 10.0; Win64; x64) AppleWebKit/537.36 (KHTML, like Gecko) Chrome/115.0.0.0 Safari/537.36" version="21.6.8" etag="NBlg0EIeK9vptXZpLc_s" type="github">
  <diagram name="Page-1" id="JoBZ3Ty4Gq-IpPHz0Sb0">
    <mxGraphModel>
      <root>
        <mxCell id="0" />
        <mxCell id="1" parent="0" />
      </root>
    </mxGraphModel>
  </diagram>
</mxfile>
